<?xml version="1.0" standalone="no"?>
<!DOCTYPE svg PUBLIC "-//W3C//DTD SVG 20010904//EN"
 "http://www.w3.org/TR/2001/REC-SVG-20010904/DTD/svg10.dtd">
<svg version="1.0" xmlns="http://www.w3.org/2000/svg"
 width="1000.000000pt" height="1080.000000pt" viewBox="0 0 1000.000000 1080.000000"
 preserveAspectRatio="xMidYMid meet">

<g transform="translate(0.000000,1080.000000) scale(0.100000,-0.100000)"
fill="#000000" stroke="none">
<path d="M4575 7693 c-107 -13 -320 -65 -338 -83 -7 -6 212 -150 228 -150 3 0
11 5 18 10 21 18 116 80 122 80 3 0 18 8 33 18 15 11 45 30 67 44 22 14 62 39
89 56 l49 32 -119 -1 c-65 -1 -132 -4 -149 -6z"/>
<path d="M4861 7693 c10 -2 19 -14 23 -26 3 -11 8 -18 11 -15 11 11 -15 48
-33 47 -15 -1 -15 -2 -1 -6z"/>
<path d="M5035 7664 c25 -60 56 -187 67 -281 7 -59 14 -100 16 -90 3 16 5 15
21 -5 9 -13 29 -44 44 -70 15 -26 34 -53 42 -61 14 -14 184 -349 246 -483 31
-69 36 -89 17 -78 -7 4 -8 3 -4 -4 4 -7 -9 -41 -29 -77 -20 -36 -34 -65 -31
-65 4 0 42 18 84 39 95 48 281 126 419 176 120 43 115 25 48 195 -51 127 -72
170 -86 170 -6 0 -7 4 -4 10 9 14 -14 52 -27 44 -7 -4 -8 -2 -4 5 10 16 -22
64 -36 55 -7 -4 -8 -3 -4 4 10 17 -76 135 -154 212 -145 144 -320 241 -530
295 -36 9 -74 19 -84 22 -16 4 -18 2 -11 -13z"/>
<path d="M4080 6657 c0 -2 9 -39 20 -83 44 -170 89 -373 100 -452 7 -46 15
-81 17 -78 8 7 -15 167 -42 298 -23 114 -81 318 -90 318 -3 0 -5 -2 -5 -3z"/>
<path d="M5895 6595 c-160 -53 -395 -148 -470 -189 -22 -12 -84 -46 -137 -76
-54 -29 -96 -55 -95 -57 2 -2 64 8 137 22 73 14 138 25 144 25 16 0 58 -82 47
-93 -4 -4 -61 -28 -127 -53 -65 -25 -123 -49 -127 -53 -5 -5 -3 -42 4 -83 l12
-75 126 -7 c323 -16 685 -3 846 30 205 42 359 128 427 239 21 36 24 98 4 114
-8 7 -52 21 -98 32 -120 29 -310 86 -400 120 -75 29 -78 32 -78 62 0 32 -33
98 -47 96 -5 0 -80 -24 -168 -54z"/>
<path d="M4887 6599 c7 -7 15 -10 18 -7 3 3 -2 9 -12 12 -14 6 -15 5 -6 -5z"/>
<path d="M4940 6450 c-6 -11 -8 -20 -6 -20 3 0 10 9 16 20 6 11 8 20 6 20 -3
0 -10 -9 -16 -20z"/>
<path d="M5290 6390 c-8 -5 -10 -10 -5 -10 6 0 17 5 25 10 8 5 11 10 5 10 -5
0 -17 -5 -25 -10z"/>
<path d="M5115 6280 c-16 -7 -17 -9 -3 -9 9 -1 20 4 23 9 7 11 7 11 -20 0z"/>
<path d="M4025 6083 c-11 -2 -74 -20 -140 -40 -66 -19 -153 -44 -194 -55 -84
-22 -124 -46 -146 -88 -22 -42 -18 -51 5 -13 33 55 36 56 315 139 83 24 167
44 188 44 56 0 99 -22 140 -72 33 -40 40 -44 73 -40 22 3 31 7 24 12 -7 4 -21
5 -31 3 -13 -4 -38 12 -79 51 -34 31 -69 56 -78 56 -9 0 -26 2 -37 4 -11 2
-29 2 -40 -1z"/>
<path d="M4820 6000 c-9 -6 -10 -10 -3 -10 6 0 15 5 18 10 8 12 4 12 -15 0z"/>
<path d="M6340 5809 c-212 -17 -479 -63 -942 -162 -42 -8 -48 -13 -48 -34 0
-21 4 -24 23 -19 252 68 1044 194 987 157 -41 -26 -461 -139 -815 -220 -136
-30 -169 -41 -167 -54 1 -9 -7 -18 -18 -22 -12 -4 -20 -9 -17 -11 2 -3 57 7
122 21 65 14 120 23 122 21 2 -2 13 -57 24 -122 18 -116 25 -204 14 -204 -31
0 -183 108 -271 192 -52 50 -65 57 -84 50 -21 -8 -19 -12 50 -80 76 -75 180
-151 269 -197 l54 -29 -6 -80 c-4 -45 -9 -111 -13 -148 -6 -60 -5 -68 10 -68
25 0 36 43 43 165 l6 112 84 -29 c46 -15 114 -35 151 -43 95 -20 283 -38 293
-28 15 15 31 205 38 447 l6 238 90 33 c50 18 97 36 106 39 24 10 29 -16 36
-209 4 -116 2 -214 -8 -305 -7 -74 -14 -139 -14 -145 0 -5 9 -10 20 -10 25 0
31 30 45 223 11 147 3 339 -18 482 -8 53 -6 53 -172 39z m-140 -356 c0 -218
-15 -414 -32 -424 -27 -17 -252 20 -383 63 l-100 33 -12 110 c-7 61 -18 142
-25 180 -7 39 -12 74 -13 79 0 5 66 24 147 43 81 19 200 49 265 67 65 19 126
34 136 35 16 1 17 -14 17 -186z"/>
<path d="M3519 5666 c-88 -69 -96 -72 -126 -44 -23 20 -24 21 -15 3 5 -11 20
-29 32 -40 18 -16 26 -17 51 -8 24 9 29 9 29 -3 0 -54 87 -244 156 -341 74
-103 319 -301 615 -497 137 -90 180 -109 194 -87 3 6 -54 49 -127 96 -180 118
-526 379 -536 404 -1 4 114 26 255 50 322 54 303 49 303 73 0 19 -5 20 -52 15
-29 -2 -147 -21 -263 -40 -115 -20 -231 -39 -257 -42 l-47 -7 -46 63 c-58 79
-118 202 -143 294 l-19 70 30 38 c16 21 28 40 25 42 -2 2 -29 -15 -59 -39z"/>
<path d="M4422 5292 c-30 -58 -30 -60 -37 -268 -9 -250 -9 -250 104 -284 140
-41 207 -36 235 19 13 24 106 369 106 391 0 6 -3 9 -7 8 -8 -2 -176 85 -295
154 -36 21 -68 38 -71 38 -2 0 -18 -26 -35 -58z"/>
<path d="M6458 5025 c-8 -8 -287 -102 -413 -139 -431 -125 -906 -215 -1345
-253 -102 -9 -187 -17 -189 -19 -2 -2 2 -10 9 -19 16 -20 61 -19 305 5 512 50
952 143 1444 305 207 69 244 86 235 110 -6 14 -35 21 -46 10z"/>
<path d="M6450 4933 c-10 -2 -26 -38 -44 -96 -34 -112 -119 -293 -181 -388
-39 -57 -57 -75 -104 -98 -106 -53 -106 -53 -61 36 62 120 153 434 130 448
-24 15 -40 -14 -68 -130 -38 -150 -79 -260 -131 -346 -35 -59 -43 -65 -87 -77
-73 -18 -276 -26 -383 -13 -51 5 -96 12 -98 15 -2 2 18 32 46 67 70 87 178
315 159 334 -16 16 -46 -8 -57 -46 -21 -70 -96 -206 -152 -274 -41 -51 -58
-65 -80 -65 -71 0 -383 106 -582 199 -89 41 -142 52 -135 29 8 -24 322 -174
449 -215 404 -132 812 -136 1069 -10 56 27 72 42 113 102 86 123 158 278 203
434 24 84 23 101 -6 94z"/>
<path d="M0 400 l0 -400 5000 0 5000 0 0 400 0 400 -5000 0 -5000 0 0 -400z
m2192 123 c23 -20 23 -57 1 -74 -15 -11 -16 -11 -5 1 27 31 11 72 -33 83 -19
4 -19 5 -1 6 11 0 28 -6 38 -16z m-69 -8 c-3 -9 -8 -14 -10 -11 -3 3 -2 9 2
15 9 16 15 13 8 -4z m-1760 -114 c22 -61 43 -108 47 -104 4 4 24 56 45 116 21
59 42 107 47 107 11 0 9 -5 -42 -149 -23 -64 -44 -107 -53 -109 -15 -3 -17 0
-67 143 -15 44 -31 88 -36 99 -5 13 -3 17 6 14 8 -2 32 -55 53 -117z m517 89
c0 -23 4 -30 20 -30 11 0 20 -4 20 -10 0 -5 -10 -10 -21 -10 -20 0 -21 -4 -17
-71 3 -55 8 -74 23 -85 23 -17 14 -29 -13 -15 -11 6 -22 25 -26 42 -10 51 -7
209 4 209 6 0 10 -13 10 -30z m515 16 c24 -10 33 -20 29 -30 -5 -12 -10 -13
-39 0 -42 17 -56 18 -79 1 -27 -20 -10 -42 49 -61 87 -27 108 -75 54 -128 -29
-29 -33 -30 -90 -25 -67 6 -74 9 -66 30 4 12 13 13 45 4 52 -14 105 5 100 37
-2 12 -14 26 -27 31 -68 28 -106 52 -109 68 -13 70 53 106 133 73z m105 -16
c0 -25 4 -30 25 -30 16 0 25 -6 25 -15 0 -9 -9 -15 -25 -15 -24 0 -25 -3 -25
-60 0 -55 2 -62 25 -72 14 -6 25 -15 25 -20 0 -18 -31 -20 -55 -4 -24 16 -25
20 -25 131 0 96 3 115 15 115 10 0 15 -10 15 -30z m482 -32 l3 -62 36 32 c20
18 45 32 55 32 14 0 9 -9 -21 -40 l-39 -40 42 -60 c40 -57 41 -60 20 -60 -16
0 -32 14 -53 45 -16 24 -33 45 -37 45 -5 0 -8 -20 -8 -45 0 -38 -3 -45 -20
-45 -19 0 -20 7 -20 130 0 122 1 130 20 130 16 0 19 -8 22 -62z m193 30 c1
-20 -2 -24 -11 -17 -8 7 -14 6 -17 -3 -3 -7 -6 2 -6 20 -1 27 3 33 17 30 11
-2 17 -13 17 -30z m-44 -35 c13 -16 12 -17 -3 -4 -17 13 -22 21 -14 21 2 0 10
-8 17 -17z m-1502 -19 c12 -15 21 -40 21 -55 0 -29 0 -29 -65 -29 -72 0 -83
-12 -44 -51 17 -17 30 -20 65 -16 43 4 59 -5 28 -17 -45 -17 -106 3 -123 41
-45 98 56 206 118 127z m191 16 c17 -11 10 -13 -40 -10 -47 2 -75 -28 -75 -80
0 -55 26 -80 82 -80 27 0 42 -4 38 -10 -3 -5 -24 -10 -46 -10 -49 0 -85 32
-94 83 -7 38 13 89 42 106 23 13 73 14 93 1z m265 -13 c20 -16 28 -35 32 -69
5 -42 3 -50 -25 -78 -41 -40 -83 -41 -123 -1 -84 85 27 226 116 148z m85 7 c0
-14 2 -14 22 0 26 18 38 20 38 6 0 -5 -5 -10 -12 -10 -6 0 -20 -7 -30 -17 -14
-13 -18 -31 -18 -90 0 -42 -4 -73 -10 -73 -6 0 -10 40 -10 100 0 60 4 100 10
100 6 0 10 -7 10 -16z m539 -1 c27 -22 40 -77 29 -120 -23 -86 -143 -84 -167
2 -12 45 2 99 32 120 29 20 80 19 106 -2z m196 -3 c0 -9 -8 -14 -20 -13 -62 8
-98 -40 -75 -97 12 -30 36 -42 75 -37 12 1 20 -4 20 -13 0 -10 -12 -16 -38
-18 -73 -6 -120 77 -86 152 14 31 45 46 89 43 24 -1 35 -7 35 -17z m5354 -83
c8 -26 17 -47 21 -47 4 0 13 21 21 47 8 25 20 48 26 50 13 5 -22 -113 -38
-131 -12 -14 -18 -5 -45 69 -16 44 -20 65 -12 63 7 -3 19 -26 27 -51z m638 38
c2 -6 -9 -11 -23 -10 -38 0 -40 -20 -5 -35 69 -28 36 -101 -33 -74 -27 10 -18
22 17 20 38 -1 43 19 8 37 -36 18 -48 42 -31 62 14 17 61 17 67 0z m333 -20
c0 -35 16 -47 26 -20 4 8 13 15 22 15 13 0 13 -3 -2 -19 -16 -18 -16 -21 -1
-50 19 -38 8 -40 -22 -3 l-22 27 -1 -27 c0 -16 -4 -28 -10 -28 -6 0 -10 30
-10 70 0 40 4 70 10 70 6 0 10 -16 10 -35z m580 32 c0 -4 -34 -104 -45 -136
-3 -8 -8 -11 -11 -8 -8 7 38 147 48 147 4 0 8 -2 8 -3z m98 -9 c21 -21 13 -45
-25 -77 l-38 -30 43 -1 c23 0 42 -4 42 -10 0 -5 -22 -10 -50 -10 -62 0 -65 15
-14 63 42 40 39 62 -8 53 -26 -5 -29 -4 -18 9 15 18 51 20 68 3z m122 7 c0 -6
-60 -127 -66 -134 -2 -2 -7 -2 -10 1 -3 3 6 29 20 57 14 28 26 53 26 56 0 3
-13 5 -30 5 -16 0 -30 5 -30 10 0 6 20 10 45 10 25 0 45 -2 45 -5z m92 -47 c2
-29 2 -61 0 -70 -5 -22 -22 -24 -22 -3 0 10 -10 15 -30 15 -16 0 -30 4 -30 9
0 18 55 100 67 101 6 0 13 -22 15 -52z m110 35 c39 -35 8 -122 -44 -123 -10 0
-18 5 -18 10 0 6 9 10 20 10 10 0 24 9 31 21 9 18 8 20 -9 15 -38 -12 -68 44
-40 72 17 17 38 15 60 -5z m120 -35 c2 -29 2 -61 0 -70 -5 -22 -22 -24 -22 -3
0 10 -10 15 -30 15 -16 0 -30 3 -30 6 0 16 56 104 67 104 6 0 13 -22 15 -52z
m110 35 c39 -35 8 -122 -44 -123 -10 0 -18 5 -18 10 0 6 9 10 20 10 10 0 24 9
31 21 9 18 8 20 -9 15 -38 -12 -68 44 -40 72 17 17 38 15 60 -5z m115 5 c14
-23 12 -106 -2 -118 -35 -29 -91 12 -68 50 7 10 10 26 7 35 -13 33 44 62 63
33z m123 -7 c-5 -11 -15 -23 -20 -26 -6 -4 -1 -14 12 -25 20 -15 21 -21 10
-44 -11 -26 -34 -32 -66 -20 -28 11 -17 24 14 18 22 -5 31 -2 36 11 6 16 -3
28 -31 39 -6 2 -5 9 3 17 18 19 15 29 -8 29 -11 0 -20 5 -20 10 0 6 18 10 40
10 37 0 40 -2 30 -19z m-2099 -39 c-15 -5 -14 -59 2 -65 6 -2 9 -7 6 -11 -15
-17 -37 8 -41 47 -6 59 0 72 24 50 11 -10 15 -19 9 -21z m360 0 c-15 -5 -14
-59 2 -65 6 -2 9 -7 6 -11 -15 -17 -37 8 -41 47 -6 59 0 72 24 50 11 -10 15
-19 9 -21z m-533 6 c23 -23 13 -38 -24 -38 -46 0 -41 -23 7 -30 31 -5 32 -7
12 -14 -51 -17 -88 27 -63 73 12 23 49 28 68 9z m109 5 c14 -6 10 -9 -17 -13
-29 -4 -35 -9 -35 -30 0 -21 6 -26 35 -30 27 -4 31 -7 17 -13 -10 -4 -25 -7
-32 -7 -20 0 -45 28 -45 50 0 22 25 50 45 50 7 0 22 -3 32 -7z m177 -9 c21
-20 20 -43 -1 -66 -20 -22 -46 -23 -67 -2 -31 30 -9 84 34 84 10 0 26 -7 34
-16z m86 6 c0 -4 -7 -10 -15 -14 -9 -3 -15 -19 -15 -41 0 -19 -4 -35 -10 -35
-5 0 -10 22 -10 49 0 45 2 49 25 49 14 0 25 -4 25 -8z m274 -6 c21 -20 20 -43
-1 -66 -20 -22 -46 -23 -67 -2 -31 30 -9 84 34 84 10 0 26 -7 34 -16z m113 9
c14 -6 10 -9 -17 -13 -29 -4 -35 -9 -35 -30 0 -21 6 -26 35 -30 27 -4 31 -7
17 -13 -10 -4 -25 -7 -32 -7 -20 0 -45 28 -45 50 0 22 25 50 45 50 7 0 22 -3
32 -7z m258 -2 c3 -5 -9 -11 -27 -13 -28 -2 -33 -7 -33 -28 0 -21 5 -26 33
-28 36 -4 34 -22 -3 -22 -28 0 -55 24 -55 50 0 37 67 69 85 41z m99 -7 c31
-30 9 -84 -34 -84 -24 0 -50 26 -50 50 0 24 26 50 50 50 10 0 26 -7 34 -16z
m113 4 c7 -5 14 -5 18 2 10 16 42 12 49 -6 10 -25 7 -84 -4 -84 -5 0 -10 18
-10 41 0 33 -3 40 -17 37 -13 -2 -19 -14 -21 -41 -4 -50 -22 -47 -22 4 0 36
-2 40 -22 37 -19 -2 -24 -10 -26 -40 -5 -55 -22 -46 -22 10 0 48 0 49 33 49
17 0 37 -4 44 -9z m-327 -78 c0 -5 -4 -10 -10 -10 -5 0 -10 5 -10 10 0 6 5 10
10 10 6 0 10 -4 10 -10z"/>
<path d="M2150 500 c0 -5 5 -10 10 -10 6 0 10 5 10 10 0 6 -4 10 -10 10 -5 0
-10 -4 -10 -10z"/>
<path d="M536 418 c-28 -39 -21 -48 39 -48 48 0 55 3 55 19 0 48 -67 68 -94
29z"/>
<path d="M986 424 c-50 -50 -21 -144 44 -144 48 0 80 50 66 104 -13 53 -75 75
-110 40z"/>
<path d="M1616 408 c-32 -46 -8 -118 39 -118 28 0 55 34 55 70 0 36 -27 70
-55 70 -13 0 -31 -10 -39 -22z"/>
<path d="M9077 350 c-18 -29 -18 -30 2 -30 17 0 21 6 21 30 0 17 -1 30 -3 30
-1 0 -11 -13 -20 -30z"/>
<path d="M9184 375 c-7 -18 3 -35 21 -35 18 0 26 15 19 34 -8 20 -33 21 -40 1z"/>
<path d="M9307 350 c-18 -29 -18 -30 2 -30 17 0 21 6 21 30 0 17 -1 30 -3 30
-1 0 -11 -13 -20 -30z"/>
<path d="M9414 375 c-7 -18 3 -35 21 -35 18 0 26 15 19 34 -8 20 -33 21 -40 1z"/>
<path d="M9532 374 c2 -11 11 -20 22 -22 13 -3 17 1 14 14 -2 11 -11 20 -22
22 -13 3 -17 -1 -14 -14z"/>
<path d="M9524 325 c-8 -21 10 -39 30 -32 22 9 20 24 -4 37 -16 9 -22 8 -26
-5z"/>
<path d="M7375 340 c-4 -6 5 -10 19 -10 14 0 26 5 26 10 0 6 -9 10 -19 10 -11
0 -23 -4 -26 -10z"/>
<path d="M7654 336 c-10 -26 4 -48 28 -44 17 2 23 10 23 28 0 18 -6 26 -23 28
-13 2 -25 -3 -28 -12z"/>
<path d="M8014 336 c-10 -26 4 -48 28 -44 17 2 23 10 23 28 0 18 -6 26 -23 28
-13 2 -25 -3 -28 -12z"/>
<path d="M8484 336 c-10 -26 4 -48 28 -44 17 2 23 10 23 28 0 18 -6 26 -23 28
-13 2 -25 -3 -28 -12z"/>
</g>
</svg>
